<?xml version="1.0" encoding="UTF-8"?>
<svg version="1.1" xmlns="http://www.w3.org/2000/svg" width="512" height="512">
<path d="M0 0 C1.42055367 2.64380821 2.83648601 5.2899307 4.25 7.9375 C4.64574219 8.67291016 5.04148438 9.40832031 5.44921875 10.16601562 C8.20941748 15.34704439 10.68545225 20.60550749 13 26 C13.68771484 25.90912109 14.37542969 25.81824219 15.08398438 25.72460938 C48.11344553 21.54502149 91.85244433 16.28414811 124 27 C124.24878906 26.18789062 124.49757813 25.37578125 124.75390625 24.5390625 C126.23018109 20.34625685 128.03818579 16.3896972 129.9375 12.375 C130.28490234 11.62476562 130.63230469 10.87453125 130.99023438 10.1015625 C132.70910375 6.45017897 134.37690593 3.10824313 137 0 C164.69955139 3.19398406 221.09694151 12.56326734 240.8581543 34.01733398 C242.76075274 36.58261117 244.36773934 39.25350152 246 42 C246.8905243 43.44227333 247.78258004 44.8836017 248.67578125 46.32421875 C295.95161683 123.23728503 319.93210265 210.78549609 314.17285156 301.13964844 C314.05064659 303.16189915 313.9678876 305.18671561 313.91308594 307.21191406 C313.56324155 315.23387037 313.56324155 315.23387037 310.8203125 318.96484375 C309.88960938 319.63644531 308.95890625 320.30804688 308 321 C307.04867188 321.74378906 306.09734375 322.48757813 305.1171875 323.25390625 C290.93534229 333.3520635 276.24501738 342.62282244 260.94628906 350.93652344 C259.02526769 351.98619342 257.11801265 353.05805836 255.2109375 354.1328125 C233.61109103 366.13062407 210.51895078 374.6496222 187 382 C178.86692958 371.13191475 171.79258768 359.74667079 165 348 C164.51611816 347.1745166 164.03223633 346.3490332 163.53369141 345.49853516 C163.07526855 344.70108887 162.6168457 343.90364258 162.14453125 343.08203125 C161.73178955 342.36893799 161.31904785 341.65584473 160.89379883 340.92114258 C160 339 160 339 160 336 C160.75953979 335.66959717 160.75953979 335.66959717 161.53442383 335.33251953 C174.32397627 329.74185103 186.72858046 323.64933253 199 317 C199.23226189 314.73080676 199.23226189 314.73080676 196.875 312.8125 C194.16038634 310.69418854 194.16038634 310.69418854 191.14819336 311.25927734 C188.17288233 311.95932338 185.563265 312.84639301 182.75390625 314.0390625 C181.76422852 314.45124023 180.77455078 314.86341797 179.75488281 315.28808594 C178.70139648 315.72926758 177.64791016 316.17044922 176.5625 316.625 C150.56893157 327.20825759 123.0397481 334.60636297 95 337 C93.75476563 337.10957031 92.50953125 337.21914063 91.2265625 337.33203125 C44.52001717 340.82803015 -5.73509954 333.79826699 -48.04296875 312.99438477 C-51.76836738 311.22942599 -54.06136519 310.60579299 -58 312 C-59.35622245 312.96873032 -60.69417053 313.96434215 -62 315 C-62.66 315 -63.32 315 -64 315 C-60.68449251 318.57493186 -56.78342981 320.45523583 -52.5 322.6875 C-51.67008545 323.12304199 -50.8401709 323.55858398 -49.98510742 324.00732422 C-41.20975521 328.53393172 -32.1592608 332.3280903 -23 336 C-30.6238062 352.05483894 -39.34201115 367.73931069 -50 382 C-93.90221619 369.08393074 -134.04760782 347.89369264 -171.15673828 321.3059082 C-172.75167962 320.17592923 -174.37362571 319.08424952 -176 318 C-176.52416992 316.23632812 -176.52416992 316.23632812 -176.73046875 314.03125 C-176.81143799 313.17225098 -176.89240723 312.31325195 -176.97583008 311.42822266 C-177.04568115 310.46190918 -177.11553223 309.4955957 -177.1875 308.5 C-177.26572998 307.46536621 -177.34395996 306.43073242 -177.42456055 305.36474609 C-181.13113119 248.49293704 -174.49523141 191.99284568 -156 138 C-155.69368652 137.08863281 -155.38737305 136.17726562 -155.07177734 135.23828125 C-144.18234924 102.99945574 -128.81229523 72.19612079 -110.57983398 43.51074219 C-109.54105913 41.85987514 -108.53402788 40.18852622 -107.56274414 38.49707031 C-104.00298012 32.55620751 -100.57863459 30.02481392 -94.1875 27.5 C-93.32294189 27.13600098 -92.45838379 26.77200195 -91.56762695 26.39697266 C-88.72666246 25.22232132 -85.86945906 24.10312648 -83 23 C-81.51306641 22.42717285 -81.51306641 22.42717285 -79.99609375 21.84277344 C-56.78460355 13.01618186 -33.27909505 6.18729298 -9 1 C-8.14680176 0.81099121 -7.29360352 0.62198242 -6.41455078 0.42724609 C-4 0 -4 0 0 0 Z M-40.1875 170.125 C-49.44368985 178.74541115 -55.68203128 191.53559436 -56.23828125 204.1875 C-56.60855474 220.22601304 -53.58975285 235.13583435 -42.3125 247.3125 C-33.46118714 255.53881558 -22.75894441 259.64036589 -10.73046875 259.3046875 C0.89689266 258.00721369 10.37087827 253.09099839 18.28515625 244.52734375 C27.8244497 232.42046478 30.89527462 218.11831673 30 203 C28.21280019 189.24348037 22.09494902 176.58517116 11 168 C-5.58524938 157.20679423 -24.70372604 157.73203697 -40.1875 170.125 Z M122.375 170.4375 C112.09858678 180.09441314 107.12529576 193.30093331 106.55102539 207.13671875 C106.27200409 221.42688164 109.3135255 233.99352497 119 245 C127.80343139 254.12067216 137.05208923 258.75859656 149.75 259.375 C161.90465206 259.03580041 172.5353191 253.8352677 180.83984375 245.0546875 C190.0541603 233.47231504 194.58511125 218.74687767 193 204 C190.47718824 189.68981353 185.76061561 177.29993296 174 168 C157.12483962 156.98623986 138.03688045 157.93476809 122.375 170.4375 Z " fill="#000000" transform="translate(187,65)"/>
</svg>
